<svg width="15" height="15" viewBox="0 0 15 15" fill="none" xmlns="http://www.w3.org/2000/svg">
<path d="M7.5 0.5C3.7053 0.5 0.5 3.706 0.5 7.5C0.5 11.294 3.7053 14.5 7.5 14.5C11.2947 14.5 14.5 11.294 14.5 7.5C14.5 3.706 11.2947 0.5 7.5 0.5ZM7.5 9.6C8.1944 9.6 8.795 9.4145 9.1051 9.1044L10.0949 10.0949C9.3067 10.8824 8.1307 11 7.5 11C5.5701 11 4 9.4299 4 7.5C4 5.5701 5.5701 4 7.5 4C8.1307 4 9.3074 4.1176 10.0949 4.9051L9.1051 5.8949C8.7957 5.5848 8.1951 5.4 7.5 5.4C6.3618 5.4 5.4 6.3618 5.4 7.5C5.4 8.6382 6.3618 9.6 7.5 9.6Z" fill="#9B9D9D"/>
</svg>
