<svg width="14" height="14" viewBox="0 0 14 14" fill="none" xmlns="http://www.w3.org/2000/svg">
<path d="M9.56843 13.5C10.1055 13.5 10.6259 13.3138 11.0411 12.9732C11.4562 12.6325 11.7405 12.1584 11.8453 11.6317C12.3 11.5818 12.7204 11.3659 13.0257 11.0252C13.3311 10.6846 13.5 10.2432 13.5 9.78571V2.35714C13.5 1.8646 13.3043 1.39223 12.9561 1.04394C12.6078 0.695663 12.1354 0.5 11.6429 0.5H4.21429C3.75169 0.500077 3.30578 0.672793 2.96384 0.984342C2.62189 1.29589 2.40852 1.72384 2.3655 2.18443C1.8393 2.28983 1.36587 2.57428 1.02575 2.98939C0.68564 3.4045 0.499852 3.92463 0.5 4.46129V10.25C0.5 11.112 0.84241 11.9386 1.4519 12.5481C2.0614 13.1576 2.88805 13.5 3.75 13.5H9.56843ZM1.42857 4.46129C1.42823 4.17297 1.51737 3.89165 1.68369 3.65614C1.85001 3.42063 2.08531 3.24253 2.35714 3.14643V9.78571C2.35714 10.2783 2.55281 10.7506 2.90109 11.0989C3.24937 11.4472 3.72174 11.6429 4.21429 11.6429H10.8814C10.7854 11.9144 10.6076 12.1495 10.3725 12.3158C10.1373 12.4821 9.85643 12.5714 9.56843 12.5714H3.75C3.13432 12.5714 2.54385 12.3268 2.1085 11.8915C1.67315 11.4561 1.42857 10.8657 1.42857 10.25V4.46129ZM6.55057 3.28571H10.25C10.3731 3.28571 10.4912 3.33463 10.5783 3.4217C10.6654 3.50877 10.7143 3.62686 10.7143 3.75V7.44943C10.7143 7.57256 10.6654 7.69066 10.5783 7.77773C10.4912 7.8648 10.3731 7.91371 10.25 7.91371C10.1269 7.91371 10.0088 7.8648 9.9217 7.77773C9.83463 7.69066 9.78571 7.57256 9.78571 7.44943V4.87079L5.93586 8.72157C5.84868 8.80875 5.73043 8.85773 5.60714 8.85773C5.48385 8.85773 5.36561 8.80875 5.27843 8.72157C5.19125 8.63439 5.14227 8.51615 5.14227 8.39286C5.14227 8.26957 5.19125 8.15132 5.27843 8.06414L9.12921 4.21429H6.55057C6.42743 4.21429 6.30934 4.16537 6.22227 4.0783C6.1352 3.99123 6.08629 3.87314 6.08629 3.75C6.08629 3.62686 6.1352 3.50877 6.22227 3.4217C6.30934 3.33463 6.42743 3.28571 6.55057 3.28571Z" fill="#E48C72"/>
</svg>
