<svg width="40" height="40" viewBox="0 0 40 40" fill="none" xmlns="http://www.w3.org/2000/svg">
<rect width="40" height="40" rx="20" fill="#FBF4F1"/>
<path d="M26.308 18.4911H21.6205C21.1943 18.4911 20.7855 18.3217 20.4841 18.0203C20.1827 17.719 20.0134 17.3102 20.0134 16.8839V12.1964C20.0134 12.1609 19.9993 12.1268 19.9742 12.1017C19.949 12.0766 19.915 12.0625 19.8795 12.0625H16.7991C16.2308 12.0625 15.6857 12.2883 15.2839 12.6901C14.882 13.092 14.6562 13.637 14.6562 14.2054V24.9196C14.6562 25.488 14.882 26.033 15.2839 26.4349C15.6857 26.8367 16.2308 27.0625 16.7991 27.0625H24.2991C24.8674 27.0625 25.4125 26.8367 25.8143 26.4349C26.2162 26.033 26.442 25.488 26.442 24.9196V18.625C26.442 18.5895 26.4279 18.5554 26.4027 18.5303C26.3776 18.5052 26.3436 18.4911 26.308 18.4911Z" fill="#CA907F"/>
<path d="M26.0141 17.3055L21.199 12.4904C21.1896 12.4811 21.1777 12.4748 21.1648 12.4722C21.1518 12.4696 21.1384 12.471 21.1262 12.476C21.114 12.4811 21.1036 12.4896 21.0962 12.5006C21.0888 12.5115 21.0849 12.5244 21.0848 12.5376V16.8839C21.0848 17.026 21.1413 17.1623 21.2417 17.2627C21.3422 17.3632 21.4785 17.4196 21.6205 17.4196H25.9669C25.9801 17.4196 25.9929 17.4156 26.0039 17.4083C26.0149 17.4009 26.0234 17.3905 26.0285 17.3783C26.0335 17.3661 26.0348 17.3526 26.0323 17.3397C26.0297 17.3267 26.0234 17.3148 26.0141 17.3055Z" fill="#CA907F"/>
</svg>
