<svg width="40" height="40" viewBox="0 0 40 40" fill="none" xmlns="http://www.w3.org/2000/svg">
<rect width="40" height="40" rx="20" fill="#F8F8F8"/>
<path d="M16.1671 17.4047C16.114 17.3517 16.0719 17.2886 16.0431 17.2193C16.0144 17.1499 15.9996 17.0755 15.9996 17.0004C15.9996 16.9254 16.0144 16.851 16.0431 16.7816C16.0719 16.7123 16.114 16.6492 16.1671 16.5962L19.5957 13.1676C19.6488 13.1145 19.7118 13.0723 19.7812 13.0436C19.8505 13.0148 19.9249 13 20 13C20.0751 13 20.1495 13.0148 20.2188 13.0436C20.2882 13.0723 20.3512 13.1145 20.4043 13.1676L23.8329 16.5962C23.9401 16.7034 24.0003 16.8488 24.0003 17.0004C24.0003 17.1521 23.9401 17.2975 23.8329 17.4047C23.7256 17.512 23.5802 17.5722 23.4286 17.5722C23.2769 17.5722 23.1315 17.512 23.0243 17.4047L20.5714 14.9512V21.0005C20.5714 21.152 20.5112 21.2973 20.4041 21.4045C20.2969 21.5117 20.1516 21.5719 20 21.5719C19.8484 21.5719 19.7031 21.5117 19.5959 21.4045C19.4888 21.2973 19.4286 21.152 19.4286 21.0005V14.9512L16.9757 17.4047C16.9226 17.4579 16.8596 17.5 16.7903 17.5288C16.7209 17.5575 16.6465 17.5723 16.5714 17.5723C16.4963 17.5723 16.422 17.5575 16.3526 17.5288C16.2832 17.5 16.2202 17.4579 16.1671 17.4047ZM28 21.5719V26.1433C28 26.4464 27.8796 26.7371 27.6653 26.9514C27.4509 27.1658 27.1602 27.2862 26.8571 27.2862H13.1429C12.8398 27.2862 12.5491 27.1658 12.3347 26.9514C12.1204 26.7371 12 26.4464 12 26.1433V21.5719C12 21.2688 12.1204 20.9781 12.3347 20.7638C12.5491 20.5494 12.8398 20.429 13.1429 20.429H18C18.0758 20.429 18.1484 20.4591 18.202 20.5127C18.2556 20.5663 18.2857 20.639 18.2857 20.7147V20.9619C18.2857 21.9226 19.0714 22.7326 20.0329 22.7147C20.4818 22.7061 20.9094 22.5217 21.2239 22.2012C21.5383 21.8806 21.7144 21.4495 21.7143 21.0005V20.7147C21.7143 20.639 21.7444 20.5663 21.798 20.5127C21.8516 20.4591 21.9242 20.429 22 20.429H26.8571C27.1602 20.429 27.4509 20.5494 27.6653 20.7638C27.8796 20.9781 28 21.2688 28 21.5719ZM25.1429 23.8576C25.1429 23.6881 25.0926 23.5223 24.9984 23.3814C24.9042 23.2404 24.7704 23.1306 24.6137 23.0657C24.4571 23.0008 24.2848 22.9838 24.1185 23.0169C23.9522 23.05 23.7995 23.1316 23.6796 23.2515C23.5598 23.3714 23.4781 23.5241 23.445 23.6904C23.412 23.8566 23.4289 24.029 23.4938 24.1856C23.5587 24.3422 23.6686 24.4761 23.8095 24.5703C23.9505 24.6645 24.1162 24.7147 24.2857 24.7147C24.513 24.7147 24.7311 24.6244 24.8918 24.4637C25.0526 24.3029 25.1429 24.0849 25.1429 23.8576Z" fill="#E48C72"/>
</svg>
